<svg xmlns:xlink="http://www.w3.org/1999/xlink" width="512" xmlns="http://www.w3.org/2000/svg" height="512" id="screenshot-dcf5a2af-2bda-8048-8002-3894fd024da6" viewBox="0 0 512 512" style="-webkit-print-color-adjust: exact;" fill="none" version="1.1"><g id="shape-dcf5a2af-2bda-8048-8002-3894fd024da6"><defs><clipPath class="frame-clip-def frame-clip" id="frame-clip-dcf5a2af-2bda-8048-8002-3894fd024da6-rumext-id-1"><rect rx="0" ry="0" x="0" y="0" width="512" height="512" transform="matrix(1.000000, 0.000000, 0.000000, 1.000000, 0.000000, 0.000000)"/></clipPath></defs><g clip-path="url(#frame-clip-dcf5a2af-2bda-8048-8002-3894fd024da6-rumext-id-1)"><clipPath class="frame-clip-def frame-clip" id="frame-clip-dcf5a2af-2bda-8048-8002-3894fd024da6-rumext-id-1"><rect rx="0" ry="0" x="0" y="0" width="512" height="512" transform="matrix(1.000000, 0.000000, 0.000000, 1.000000, 0.000000, 0.000000)"/></clipPath><g class="fills" id="fills-dcf5a2af-2bda-8048-8002-3894fd024da6"><rect rx="0" ry="0" x="0" y="0" transform="matrix(1.000000, 0.000000, 0.000000, 1.000000, 0.000000, 0.000000)" width="512" height="512" class="frame-background"/></g><g class="frame-children"><g id="shape-dcf5a2af-2bda-8048-8002-389bdb71c858"><g class="fills" id="fills-dcf5a2af-2bda-8048-8002-389bdb71c858"><ellipse rx="256" ry="256" cx="256" cy="256" transform="matrix(1.000000, 0.000000, 0.000000, 1.000000, 0.000000, 0.000000)" style="fill: rgb(255, 255, 255); fill-opacity: 1;"/></g></g><g id="shape-dcf5a2af-2bda-8048-8002-389ba850ebe5" rx="0" ry="0"><g id="shape-dcf5a2af-2bda-8048-8002-38951519083b"><g class="fills" id="fills-dcf5a2af-2bda-8048-8002-38951519083b"><path rx="0" ry="0" d="M239.188,159.683L248.978,179.261L248.975,179.261C250.387,182.086,253.274,183.871,256.435,183.871C259.593,183.871,262.480,182.086,263.892,179.261L273.683,159.683L293.261,149.892L293.257,149.896C296.082,148.483,297.867,145.593,297.867,142.435C297.867,139.278,296.082,136.391,293.257,134.978L273.679,125.188L263.889,105.610L263.892,105.610C262.480,102.785,259.593,101.000,256.435,101.000C253.274,101.000,250.387,102.785,248.975,105.610L239.184,125.188L219.606,134.978L219.610,134.978C216.785,136.391,215.000,139.278,215.000,142.435C215.000,145.593,216.785,148.483,219.610,149.896Z" style="fill: rgb(0, 0, 0); fill-opacity: 1;"/></g></g><g id="shape-dcf5a2af-2bda-8048-8002-38951519083c"><g class="fills" id="fills-dcf5a2af-2bda-8048-8002-38951519083c"><path rx="0" ry="0" d="M225.294,370.507C225.294,381.949,216.020,391.226,204.579,391.226C193.137,391.226,183.863,381.949,183.863,370.507C183.863,359.066,193.137,349.792,204.579,349.792C216.020,349.792,225.294,359.066,225.294,370.507Z" style="fill: rgb(0, 0, 0); fill-opacity: 1;"/></g></g><g id="shape-dcf5a2af-2bda-8048-8002-389515194586"><g class="fills" id="fills-dcf5a2af-2bda-8048-8002-389515194586"><path rx="0" ry="0" d="M328.880,370.507C328.880,381.949,319.607,391.226,308.165,391.226C296.723,391.226,287.450,381.949,287.450,370.507C287.450,359.066,296.723,349.792,308.165,349.792C319.607,349.792,328.880,359.066,328.880,370.507Z" style="fill: rgb(0, 0, 0); fill-opacity: 1;"/></g></g><g id="shape-dcf5a2af-2bda-8048-8002-38951519b544"><g class="fills" id="fills-dcf5a2af-2bda-8048-8002-38951519b544"><path rx="0" ry="0" d="M410.136,405.314C414.060,401.279,416.173,395.820,415.989,390.191C412.882,285.004,396.360,250.090,382.375,231.389C374.561,220.937,362.278,214.778,349.228,214.763C342.804,214.763,336.471,216.269,330.737,219.167C317.117,226.111,304.646,235.106,293.757,245.840C269.078,238.662,242.868,238.662,218.192,245.840C207.336,235.020,194.882,225.937,181.262,218.907C175.506,216.103,169.173,214.684,162.771,214.763C149.729,214.763,137.449,220.905,129.624,231.339C115.588,250.035,99.118,284.996,96.010,390.140C95.779,397.543,99.515,404.504,105.808,408.406C112.102,412.305,120.000,412.554,126.527,409.053C133.052,405.552,137.214,398.836,137.446,391.433C140.603,285.775,157.283,263.560,162.771,256.207C163.859,256.778,189.911,269.932,201.823,292.461L201.826,292.461C202.480,293.715,203.622,294.647,204.980,295.037C206.342,295.427,207.802,295.247,209.023,294.535C238.153,277.908,273.898,277.908,303.027,294.535C304.249,295.247,305.712,295.427,307.070,295.037C308.429,294.647,309.570,293.715,310.228,292.461C322.139,269.881,348.140,256.723,349.279,256.207C354.770,263.508,371.447,285.731,374.605,391.489C374.775,396.933,377.083,402.092,381.032,405.849C384.977,409.607,390.244,411.655,395.693,411.558C401.141,411.456,406.329,409.213,410.136,405.314ZZ" style="fill: rgb(0, 0, 0); fill-opacity: 1;"/></g></g></g></g></g></g></svg>